<svg width="960" height="720" viewBox="0 0 960 720" fill="none" xmlns="http://www.w3.org/2000/svg">
  <rect width="960" height="720" rx="48" fill="#F4F7FC"/>
  <rect x="44" y="44" width="872" height="632" rx="38" fill="url(#paint0_linear_2_2)"/>
  <rect x="86" y="86" width="260" height="548" rx="30" fill="rgba(255,255,255,0.9)"/>
  <rect x="388" y="86" width="486" height="548" rx="30" fill="rgba(255,255,255,0.92)"/>
  <rect x="116" y="120" width="112" height="24" rx="12" fill="#8094FF"/>
  <rect x="116" y="170" width="200" height="110" rx="24" fill="url(#paint1_linear_2_2)"/>
  <rect x="136" y="194" width="88" height="18" rx="9" fill="#FFFFFF"/>
  <rect x="136" y="225" width="128" height="12" rx="6" fill="rgba(255,255,255,0.76)"/>
  <rect x="116" y="306" width="200" height="110" rx="24" fill="rgba(20,31,59,0.06)"/>
  <rect x="136" y="330" width="96" height="18" rx="9" fill="#203054"/>
  <rect x="136" y="361" width="142" height="12" rx="6" fill="#71809C"/>
  <rect x="116" y="442" width="200" height="110" rx="24" fill="rgba(20,31,59,0.06)"/>
  <rect x="136" y="466" width="84" height="18" rx="9" fill="#203054"/>
  <rect x="136" y="497" width="150" height="12" rx="6" fill="#71809C"/>
  <rect x="422" y="120" width="132" height="24" rx="12" fill="#4DD7B9"/>
  <rect x="422" y="176" width="418" height="194" rx="28" fill="rgba(20,31,59,0.05)"/>
  <rect x="454" y="214" width="124" height="124" rx="28" fill="url(#paint2_linear_2_2)"/>
  <rect x="610" y="220" width="180" height="22" rx="11" fill="#203054"/>
  <rect x="610" y="258" width="158" height="14" rx="7" fill="#6D7B97"/>
  <rect x="610" y="286" width="142" height="14" rx="7" fill="#6D7B97"/>
  <rect x="610" y="314" width="168" height="14" rx="7" fill="#6D7B97"/>
  <rect x="422" y="404" width="418" height="194" rx="28" fill="rgba(20,31,59,0.05)"/>
  <rect x="454" y="438" width="116" height="30" rx="15" fill="#FF85C8"/>
  <rect x="454" y="490" width="142" height="16" rx="8" fill="#203054"/>
  <rect x="454" y="522" width="246" height="14" rx="7" fill="#6D7B97"/>
  <rect x="454" y="550" width="210" height="14" rx="7" fill="#6D7B97"/>
  <circle cx="760" cy="492" r="44" fill="#F0C35F"/>
  <path d="M760 468V494L776 503" stroke="#203054" stroke-width="12" stroke-linecap="round" stroke-linejoin="round"/>
  <defs>
    <linearGradient id="paint0_linear_2_2" x1="44" y1="44" x2="916" y2="676" gradientUnits="userSpaceOnUse">
      <stop stop-color="#FDFEFF"/>
      <stop offset="1" stop-color="#EEF4FF"/>
    </linearGradient>
    <linearGradient id="paint1_linear_2_2" x1="116" y1="170" x2="316" y2="280" gradientUnits="userSpaceOnUse">
      <stop stop-color="#5C89FF"/>
      <stop offset="1" stop-color="#8F65FF"/>
    </linearGradient>
    <linearGradient id="paint2_linear_2_2" x1="454" y1="214" x2="578" y2="338" gradientUnits="userSpaceOnUse">
      <stop stop-color="#DDE7FF"/>
      <stop offset="1" stop-color="#F7D8E8"/>
    </linearGradient>
  </defs>
</svg>
